#!OML:ASF I:\Actors\actors\Patient Classification 2\Patient 1\Session 1\actor1.ASF
:FULLY-SPECIFIED
:DEGREES
278
root -0.805782 18.3454 5.67084 -2.23863 23.4349 -8.10606
lowerback 14.2938 2.11416 7.65529
upperback 1.74726 4.18116 2.4937
thorax -5.79746 1.91262 -2.44968
lowerneck -9.29237 4.52097 3.63243
upperneck 9.02541 5.97666 -3.60895
head 4.43906 2.86155 -1.29899
rclavicle 5.31749e-015 -3.18055e-015
rhumerus -53.116 -0.849072 -86.1696
rradius 101.189
rwrist 4.07453
rhand -21.9128 -26.6203
rfingers 7.12502
rthumb 4.49294 -56.5526
lclavicle 5.31749e-015 -3.18055e-015
lhumerus -44.0832 -20.6901 103.759
lradius 100.641
lwrist -0.29452
lhand -9.73374 -31.9854
lfingers 7.12502
lthumb 16.24 -2.64561
rfemur 6.53767 -13.2674 23.0539
rtibia 10.1889
rfoot -27.0133 -16.6333
rtoes -10.1357
lfemur -20.4793 -14.7435 -5.6878
ltibia 38.689
lfoot -19.3517 -0.493101
ltoes -58.1911
279
root -0.817146 18.3486 5.66457 -2.19207 23.7178 -8.22481
lowerback 14.3146 2.07743 7.70149
upperback 1.6917 4.14754 2.51394
thorax -5.87003 1.89117 -2.45074
lowerneck -9.68306 3.11302 1.92865
upperneck 8.89178 4.16879 -2.36406
head 4.33353 1.98276 -0.764541
rclavicle -1.11965e-013 -1.51076e-014
rhumerus -53.1913 -0.637448 -86.3835
rradius 101.271
rwrist 3.9797
rhand -22.9676 -26.7483
rfingers 7.12502
rthumb 3.47438 -56.6997
lclavicle -1.11965e-013 -1.51076e-014
lhumerus -44.2614 -20.0826 103.761
lradius 100.741
lwrist -0.543469
lhand -9.53949 -32.0601
lfingers 7.12502
lthumb 16.4271 -2.73568
rfemur 6.47487 -13.505 23.2109
rtibia 10.054
rfoot -26.9085 -16.7393
rtoes -10.2541
lfemur -20.7271 -14.8355 -5.49616
ltibia 38.6717
lfoot -19.2536 -0.651468
ltoes -58.202
280
root -0.828741 18.353 5.66058 -2.12087 23.9412 -8.29744
lowerback 14.2882 2.05443 7.71727
upperback 1.64687 4.11902 2.49823
thorax -5.90388 1.87431 -2.47095
lowerneck -10.0222 1.77996 0.426929
upperneck 8.42988 2.45786 -1.19737
head 4.64486 1.15966 -0.30793
rclavicle 1.84373e-014 9.14409e-015
rhumerus -53.2268 -0.538808 -86.5259
rradius 101.239
rwrist 4.73492
rhand -23.2748 -27.2123
rfingers 7.12502
rthumb 3.17768 -57.1683
lclavicle 1.84373e-014 9.14409e-015
lhumerus -44.3822 -19.7113 103.697
lradius 100.827
lwrist -0.64119
lhand -9.34281 -32.0253
lfingers 7.12502
lthumb 16.6164 -2.71664
rfemur 6.43729 -13.7713 23.3176
rtibia 9.87746
rfoot -26.6736 -16.7874
rtoes -10.5167
lfemur -20.9264 -14.9496 -5.34159
ltibia 38.6176
lfoot -19.164 -0.763532
ltoes -58.1299
281
root -0.840387 18.3573 5.65551 -2.12098 24.2263 -8.31632
lowerback 14.3378 1.99357 7.68944
upperback 1.63229 4.03971 2.48358
thorax -5.95526 1.83371 -2.46008
lowerneck -10.0204 0.542666 -0.892625
upperneck 8.09254 0.893614 -0.341858
head 4.49299 0.393387 0.107696
rclavicle -6.6245e-014 -3.85642e-014
rhumerus -53.209 -0.471279 -86.5925
rradius 101.186
rwrist 5.24818
rhand -23.2074 -27.4732
rfingers 7.12502
rthumb 3.24277 -57.4283
lclavicle -6.6245e-014 -3.85642e-014
lhumerus -44.4032 -19.5285 103.618
lradius 100.841
lwrist -0.644897
lhand -9.33845 -31.9688
lfingers 7.12502
lthumb 16.6206 -2.6605
rfemur 6.52999 -14.1005 23.3339
rtibia 9.65842
rfoot -26.424 -16.7802
rtoes -10.6287
lfemur -21.022 -15.2102 -5.27204
ltibia 38.535
lfoot -19.0827 -0.806827
ltoes -58.1391
282
root -0.852608 18.362 5.65046 -2.13149 24.4875 -8.37866
lowerback 14.3624 1.93808 7.6983
upperback 1.61714 3.97195 2.48606
thorax -5.9911 1.79876 -2.45204
lowerneck -9.87245 -0.620578 -2.22914
upperneck 7.70599 -0.570803 0.542004
head 4.33969 -0.322294 0.544609
rclavicle 1.10325e-014 -4.77083e-015
rhumerus -53.2124 -0.374037 -86.6795
rradius 101.176
rwrist 5.23809
rhand -23.263 -27.5156
rfingers 7.12502
rthumb 3.18911 -57.4715
lclavicle 1.10325e-014 -4.77083e-015
lhumerus -44.3807 -19.3266 103.545
lradius 100.857
lwrist -0.698866
lhand -9.20149 -31.9614
lfingers 7.12502
lthumb 16.7525 -2.6642
rfemur 6.63017 -14.4071 23.3936
rtibia 9.38975
rfoot -26.1834 -16.766
rtoes -10.7035
lfemur -21.115 -15.4602 -5.15394
ltibia 38.4365
lfoot -18.999 -0.840076
ltoes -58.2053
283
root -0.865924 18.3656 5.64587 -2.16554 24.7056 -8.46997
lowerback 14.3942 1.90061 7.73983
upperback 1.60039 3.93286 2.47416
thorax -6.02673 1.77676 -2.48277
lowerneck -9.66832 -1.71593 -3.62108
upperneck 7.36637 -1.96165 1.66702
head 4.24073 -0.992084 1.08142
rclavicle -9.48203e-014 -1.53064e-014
rhumerus -53.2386 -0.30197 -86.774
rradius 101.2
rwrist 5.21325
rhand -23.3836 -27.5473
rfingers 7.12502
rthumb 3.07266 -57.5049
lclavicle -9.48203e-014 -1.53064e-014
lhumerus -44.3857 -19.2052 103.44
lradius 100.925
lwrist -0.729837
lhand -8.94829 -31.8883
lfingers 7.12502
lthumb 16.9962 -2.61184
rfemur 6.78516 -14.6729 23.4833
rtibia 9.02926
rfoot -25.9724 -16.7804
rtoes -10.7496
lfemur -21.1829 -15.7496 -5.00899
ltibia 38.3354
lfoot -18.9338 -0.748987
ltoes -58.3225
284
root -0.879272 18.3686 5.64078 -2.18185 24.9266 -8.53155
lowerback 14.4245 1.86727 7.76314
upperback 1.56481 3.89572 2.43984
thorax -6.08117 1.75458 -2.52786
lowerneck -9.30055 -2.79977 -4.92461
upperneck 6.97497 -3.36067 2.82192
head 4.13812 -1.66403 1.61705
rclavicle 4.33351e-014 -1.88845e-014
rhumerus -53.3079 -0.28027 -86.7999
rradius 101.264
rwrist 5.44877
rhand -23.2222 -27.6067
rfingers 7.12502
rthumb 3.22851 -57.562
lclavicle 4.33351e-014 -1.88845e-014
lhumerus -44.4514 -19.1053 103.351
lradius 101.026
lwrist -0.750684
lhand -8.68265 -31.8091
lfingers 7.12502
lthumb 17.2519 -2.55488
rfemur 6.97168 -14.9401 23.5471
rtibia 8.60789
rfoot -25.8325 -16.7464
rtoes -10.2728
lfemur -21.264 -16.0602 -4.89357
ltibia 38.2417
lfoot -18.872 -0.578209
ltoes -58.5069
